DBRep_DrawableShape

CASCADE Topology V1, (c) Matra-Datavision
Locations 29
1
              1               0               0               0 
              0               1               0               0 
              0               0               1               0 
2  1 -1 0
1
              1               0               0               0 
              0               1               0               0 
              0               0               1               0 
2  3 -1 0
1
              1               0               0               0 
              0               1               0               0 
              0               0               1               0 
1
              1               0               0               0 
              0               1               0               0 
              0               0               1               0 
2  5 1 6 -1 1 1 0
2  1 -1 6 1 5 -1 0
1
              1               0               0               0 
              0               1               0               0 
              0               0               1              10 
2  5 1 6 -1 9 1 1 1 0
2  9 -1 6 1 5 -1 0
2  5 -1 0
2  1 -1 9 -1 6 1 5 -1 0
2  3 -1 9 -1 6 1 5 -1 0
2  6 -1 1 1 0
2  6 -1 9 1 1 1 0
1
              1               0               0               0 
              0               1               0               0 
              0               0               1               0 
2  17 -1 0
1
              1               0               0               0 
              0               1               0               0 
              0               0               1               0 
2  19 -1 0
1
              1               0               0               0 
              0               1               0               0 
              0               0               1               0 
1
              1               0               0               0 
              0               1               0               0 
              0               0               1               0 
1
              1               0               0              -0 
              0               1               0              -0 
              0               0               1             -10 
2  21 1 22 -1 23 1 17 1 0
2  23 -1 22 1 21 -1 0
2  21 -1 0
2  17 -1 23 -1 22 1 21 -1 0
2  19 -1 23 -1 22 1 21 -1 0
2  22 -1 23 1 17 1 0
Curve2ds 0
Curves 20
1 -10 10 0 0 0 1 
1 10 10 0 0 0 1 
1 -10 10 0 1 0 0 
1 -10 10 0 1 0 0 
1 10 -10 0 0 0 1 
1 10 10 0 0 -1 0 
1 10 10 0 0 -1 0 
1 -10 -10 0 0 0 1 
1 10 -10 0 -1 0 0 
1 10 -10 0 -1 0 0 
1 -10 -10 0 0 1 0 
1 -10 -10 0 0 1 0 
1 -10 10 0 -0 -0 -1 
1 10 10 0 -0 -0 -1 
1 -10 10 0 1 0 0 
1 10 -10 0 -0 -0 -1 
1 10 10 0 0 -1 0 
1 -10 -10 0 -0 -0 -1 
1 10 -10 0 -1 0 0 
1 -10 -10 0 0 1 0 
Polygon3D 0
PolygonOnTriangulations 52
2 1 2 
p 0.1 1 0 10 
2 3 4 
p 0.1 1 0 10 
2 3 4 
p 0.1 1 0 10 
2 1 2 
p 0.1 1 0 10 
2 1 3 
p 0.1 1 0 20 
2 1 2 
p 0.1 1 0 20 
2 1 3 
p 0.1 1 0 20 
2 2 4 
p 0.0833333333333333 1 0 20 
2 1 2 
p 0.0833333333333333 1 0 20 
2 2 4 
p 0.1 1 0 20 
2 3 4 
p 0.1 1 0 10 
2 1 2 
p 0.1 1 0 10 
2 1 3 
p 0.1 1 0 20 
2 2 3 
p 0.1 1 0 20 
2 1 3 
p 0.1 1 0 20 
2 2 4 
p 0.0833333333333333 1 0 20 
2 2 3 
p 0.0833333333333333 1 0 20 
2 2 4 
p 0.1 1 0 20 
2 3 4 
p 0.1 1 0 10 
2 1 2 
p 0.1 1 0 10 
2 1 3 
p 0.1 1 0 20 
2 3 4 
p 0.1 1 0 20 
2 1 3 
p 0.1 1 0 20 
2 2 4 
p 0.0833333333333333 1 0 20 
2 3 4 
p 0.0833333333333333 1 0 20 
2 2 4 
p 0.1 1 0 20 
2 1 3 
p 0.1 1 0 20 
2 4 1 
p 0.1 1 0 20 
2 1 3 
p 0.1 1 0 20 
2 2 4 
p 0.0833333333333333 1 0 20 
2 4 1 
p 0.0833333333333333 1 0 20 
2 2 4 
p 0.1 1 0 20 
2 1 2 
p 0.1 1 0 10 
2 3 4 
p 0.1 1 0 10 
2 3 4 
p 0.1 1 0 10 
2 1 2 
p 0.1 1 0 10 
2 2 4 
p 0.0833333333333333 1 0 20 
2 1 2 
p 0.0833333333333333 1 0 20 
2 2 4 
p 0.1 1 0 20 
2 3 4 
p 0.1 1 0 10 
2 1 2 
p 0.1 1 0 10 
2 2 4 
p 0.0833333333333333 1 0 20 
2 2 3 
p 0.0833333333333333 1 0 20 
2 2 4 
p 0.1 1 0 20 
2 3 4 
p 0.1 1 0 10 
2 1 2 
p 0.1 1 0 10 
2 2 4 
p 0.0833333333333333 1 0 20 
2 3 4 
p 0.0833333333333333 1 0 20 
2 2 4 
p 0.1 1 0 20 
2 2 4 
p 0.0833333333333333 1 0 20 
2 4 1 
p 0.0833333333333333 1 0 20 
2 2 4 
p 0.1 1 0 20 
Surfaces 11
1 -10 10 0 0 1 0 1 0 0 0 0 -1 
1 10 10 0 1 0 0 0 -1 0 0 0 -1 
1 10 -10 0 0 -1 0 -1 0 0 -0 -0 -1 
1 -10 -10 0 -1 0 0 0 1 0 0 0 -1 
1 0 0 0 -0 -0 -1 -1 0 0 0 1 0 
1 0 0 0 -0 -0 -1 -1 0 0 0 1 0 
1 -10 10 0 0 -1 0 1 0 0 0 0 1 
1 10 10 0 -1 0 0 0 -1 0 0 0 1 
1 10 -10 0 0 1 0 -1 0 0 0 0 1 
1 -10 -10 0 1 0 0 0 1 0 0 0 1 
1 0 0 0 -0 -0 -1 -1 0 0 0 1 0 
Triangulations 19
4 2 1 0
-10 10 0 -10 10 10 10 10 0 10 10 10 0 0 0 -10 20 0 20 -10 3 1 2 3 2 4 
4 2 1 0
-10 -10 0 -10 -10 10 -10 10 0 -10 10 10 0 0 0 -10 20 0 20 -10 3 1 2 3 2 4 
4 2 1 0
10 10 0 10 10 10 10 -10 0 10 -10 10 0 0 0 -10 20 0 20 -10 3 1 2 3 2 4 
4 2 1 0
-10 10 0 10 10 0 10 -10 0 -10 -10 0 10 10 -10 10 -10 -10 10 -10 1 2 3 1 3 4 
4 2 1 0
-10 10 0 -10 10 -10 10 10 0 10 10 -10 0 0 0 -10 20 0 20 -10 3 1 2 3 2 4 
4 2 1 0
-10 10 0 -10 10 10 10 10 0 10 10 10 0 0 0 -10 20 0 20 -10 3 1 2 3 2 4 
4 2 1 0
-10 10 0 10 10 0 10 -10 0 -10 -10 0 10 10 -10 10 -10 -10 10 -10 1 2 3 1 3 4 
4 2 1 0
10 -10 0 10 -10 10 -10 -10 0 -10 -10 10 0 0 0 -10 20 0 20 -10 3 1 2 3 2 4 
4 2 1 0
10 10 0 10 10 -10 10 -10 0 10 -10 -10 0 0 0 -10 20 0 20 -10 3 1 2 3 2 4 
4 2 1 0
10 10 0 10 10 10 10 -10 0 10 -10 10 0 0 0 -10 20 0 20 -10 3 1 2 3 2 4 
4 2 1 0
10 -10 0 10 -10 -10 -10 -10 0 -10 -10 -10 0 0 0 -10 20 0 20 -10 3 1 2 3 2 4 
4 2 1 0
10 -10 0 10 -10 10 -10 -10 0 -10 -10 10 0 0 0 -10 20 0 20 -10 3 1 2 3 2 4 
4 2 1 0
-10 -10 0 -10 -10 -10 -10 10 0 -10 10 -10 0 0 0 -10 20 0 20 -10 3 1 2 3 2 4 
4 2 1 0
-10 -10 0 -10 -10 10 -10 10 0 -10 10 10 0 0 0 -10 20 0 20 -10 3 1 2 3 2 4 
4 2 1 0
-10 10 0 -10 10 -10 10 10 0 10 10 -10 0 0 0 -10 20 0 20 -10 3 1 2 3 2 4 
4 2 1 0
-10 10 0 10 10 0 10 -10 0 -10 -10 0 10 10 -10 10 -10 -10 10 -10 1 2 3 1 3 4 
4 2 1 0
10 10 0 10 10 -10 10 -10 0 10 -10 -10 0 0 0 -10 20 0 20 -10 3 1 2 3 2 4 
4 2 1 0
10 -10 0 10 -10 -10 -10 -10 0 -10 -10 -10 0 0 0 -10 20 0 20 -10 3 1 2 3 2 4 
4 2 1 0
-10 -10 0 -10 -10 -10 -10 10 0 -10 10 -10 0 0 0 -10 20 0 20 -10 3 1 2 3 2 4 

TShapes 60
Ve
1e-07
-10 10 0
0 0

0101101
*
Ve
1e-07
-10 10 10
0 0

0101101
*
Ed
 1e-07 1 1 0
1  1 0 0 10
6  1 1 2
6  2 2 2
0

0101000
+60 2 -59 4 *
Ve
1e-07
10 10 0
0 0

0101101
*
Ve
1e-07
10 10 10
0 0

0101101
*
Ed
 1e-07 1 1 0
1  2 0 0 10
6  3 1 2
6  4 3 2
0

0101000
+57 2 -56 4 *
Ed
 1e-07 1 1 0
1  3 0 0 20
6  5 1 8
6  6 4 8
6  7 5 8
0

0101000
+60 8 -57 8 *
Ed
 1e-07 1 1 0
1  4 0 0 20
6  8 6 11
6  9 7 12
6  10 1 13
0

0101000
+59 14 -56 14 *
Wi

0101100
+58 1 -55 1 -54 7 +53 10 *
Fa
0  1e-07 1 1
2  1
0101000
+52 0 *
Ve
1e-07
10 -10 0
0 0

0101101
*
Ve
1e-07
10 -10 10
0 0

0101101
*
Ed
 1e-07 1 1 0
1  5 0 0 10
6  11 3 2
6  12 8 2
0

0101000
+50 2 -49 4 *
Ed
 1e-07 1 1 0
1  6 0 0 20
6  13 3 8
6  14 4 8
6  15 9 8
0

0101000
+57 8 -50 8 *
Ed
 1e-07 1 1 0
1  7 0 0 20
6  16 10 11
6  17 7 12
6  18 3 13
0

0101000
+56 14 -49 14 *
Wi

0101100
+55 1 -48 1 -47 7 +46 10 *
Fa
0  1e-07 2 1
2  3
0101000
+45 0 *
Ve
1e-07
-10 -10 0
0 0

0101101
*
Ve
1e-07
-10 -10 10
0 0

0101101
*
Ed
 1e-07 1 1 0
1  8 0 0 10
6  19 8 2
6  20 2 2
0

0101000
+43 2 -42 4 *
Ed
 1e-07 1 1 0
1  9 0 0 20
6  21 8 8
6  22 4 8
6  23 11 8
0

0101000
+50 8 -43 8 *
Ed
 1e-07 1 1 0
1  10 0 0 20
6  24 12 11
6  25 7 12
6  26 8 13
0

0101000
+49 14 -42 14 *
Wi

0101100
+48 1 -41 1 -40 7 +39 10 *
Fa
0  1e-07 3 1
2  8
0101000
+38 0 *
Ed
 1e-07 1 1 0
1  11 0 0 20
6  27 2 8
6  28 4 8
6  29 13 8
0

0101000
+43 8 -60 8 *
Ed
 1e-07 1 1 0
1  12 0 0 20
6  30 14 11
6  31 7 12
6  32 2 13
0

0101000
+42 14 -59 14 *
Wi

0101100
+41 1 -58 1 -36 7 +35 10 *
Fa
0  1e-07 4 1
2  2
0101000
+34 0 *
Wi

0101100
+54 7 +47 7 +40 7 +36 7 *
Fa
0  1e-07 5 15
2  4
0101000
+32 0 *
Wi

0101100
+53 0 +46 0 +39 0 +35 0 *
Fa
0  1e-07 6 0
2  7
0101000
+30 5 *
Sh

0101100
+51 0 +44 0 +37 0 +33 0 +31 0 -29 16 *
So

0100000
+28 0 *
Ve
1e-07
-10 10 -10
0 0

0101101
*
Ed
 1e-07 1 1 0
1  13 0 0 10
6  33 5 18
6  34 13 18
0

0101000
+60 18 -26 20 *
Ve
1e-07
10 10 -10
0 0

0101101
*
Ed
 1e-07 1 1 0
1  14 0 0 10
6  35 5 18
6  36 9 18
0

0101000
+57 18 -24 20 *
Ed
 1e-07 1 1 0
1  15 0 0 20
6  37 15 25
6  38 16 26
6  39 5 27
0

0101000
+26 28 -24 28 *
Wi

0101100
+25 17 -23 17 -54 7 +22 24 *
Fa
0  1e-07 7 17
2  5
0101000
+21 0 *
Ve
1e-07
10 -10 -10
0 0

0101101
*
Ed
 1e-07 1 1 0
1  16 0 0 10
6  40 9 18
6  41 11 18
0

0101000
+50 18 -19 20 *
Ed
 1e-07 1 1 0
1  17 0 0 20
6  42 17 25
6  43 16 26
6  44 9 27
0

0101000
+24 28 -19 28 *
Wi

0101100
+23 17 -18 17 -47 7 +17 24 *
Fa
0  1e-07 8 17
2  9
0101000
+16 0 *
Ve
1e-07
-10 -10 -10
0 0

0101101
*
Ed
 1e-07 1 1 0
1  18 0 0 10
6  45 11 18
6  46 13 18
0

0101000
+43 18 -14 20 *
Ed
 1e-07 1 1 0
1  19 0 0 20
6  47 18 25
6  48 16 26
6  49 11 27
0

0101000
+19 28 -14 28 *
Wi

0101100
+18 17 -13 17 -40 7 +12 24 *
Fa
0  1e-07 9 17
2  11
0101000
+11 0 *
Ed
 1e-07 1 1 0
1  20 0 0 20
6  50 19 25
6  51 16 26
6  52 13 27
0

0101000
+14 28 -26 28 *
Wi

0101100
+13 17 -25 17 -36 7 +9 24 *
Fa
0  1e-07 10 17
2  13
0101000
+8 0 *
Wi

0101100
+22 0 +17 0 +12 0 +9 0 *
Fa
0  1e-07 11 0
2  16
0101000
+6 21 *
Sh

0101100
+20 0 +15 0 +10 0 +7 0 +31 0 -5 29 *
So

0100000
-4 0 *
Co

0100000
+27 0 +3 0 *
Co

1100000
+2 0 *

+1 0 